# xmcd
#
# Track frame offsets:
#	150
#	24081
#	38714
#	53987
#
# Disc length: 979 seconds
#
# Revision: 0
# Processed by: cddbd v1.5.2PL0 Copyright (c) Steve Scherf et al.
# Submitted via: audiograbber 1.83.01
#
DISCID=2503d104
DTITLE=Steven Casper - Topanga Ranch Motel
DYEAR=2008
DGENRE=Country
TTITLE0=Through With You
TTITLE1=Take Me Back
TTITLE2=I Want To Know
TTITLE3=Down Home Girl
EXTD=
EXTT0=
EXTT1=
EXTT2=
EXTT3=
PLAYORDER=
